<mxfile host="app.diagrams.net" agent="Mozilla/5.0 (Windows NT 10.0; Win64; x64) AppleWebKit/537.36 (KHTML, like Gecko) Chrome/126.0.0.0 Safari/537.36" version="24.7.5">
  <diagram name="페이지-1" id="qZazr193hUHMwVS4NR-1">
    <mxGraphModel dx="2049" dy="2235" grid="1" gridSize="10" guides="1" tooltips="1" connect="1" arrows="1" fold="1" page="1" pageScale="1" pageWidth="827" pageHeight="1169" math="0" shadow="0">
      <root>
        <mxCell id="0" />
        <mxCell id="1" parent="0" />
        <mxCell id="1XmJx1WI5i3YDK_gQCyh-6" value="" style="ellipse;html=1;shape=startState;fillColor=#000000;strokeColor=#ff0000;" parent="1" vertex="1">
          <mxGeometry x="140" y="80" width="30" height="30" as="geometry" />
        </mxCell>
        <mxCell id="1XmJx1WI5i3YDK_gQCyh-7" value="" style="edgeStyle=orthogonalEdgeStyle;html=1;verticalAlign=bottom;endArrow=open;endSize=8;strokeColor=#ff0000;rounded=0;" parent="1" source="1XmJx1WI5i3YDK_gQCyh-6" edge="1">
          <mxGeometry relative="1" as="geometry">
            <mxPoint x="155" y="150" as="targetPoint" />
          </mxGeometry>
        </mxCell>
        <mxCell id="1XmJx1WI5i3YDK_gQCyh-25" style="edgeStyle=orthogonalEdgeStyle;rounded=0;orthogonalLoop=1;jettySize=auto;html=1;entryX=0.5;entryY=0;entryDx=0;entryDy=0;" parent="1" source="1XmJx1WI5i3YDK_gQCyh-8" target="1XmJx1WI5i3YDK_gQCyh-14" edge="1">
          <mxGeometry relative="1" as="geometry" />
        </mxCell>
        <mxCell id="1XmJx1WI5i3YDK_gQCyh-8" value="GetMessage" style="html=1;whiteSpace=wrap;" parent="1" vertex="1">
          <mxGeometry x="100" y="150" width="110" height="50" as="geometry" />
        </mxCell>
        <mxCell id="1XmJx1WI5i3YDK_gQCyh-41" style="edgeStyle=orthogonalEdgeStyle;rounded=0;orthogonalLoop=1;jettySize=auto;html=1;entryX=1;entryY=0.5;entryDx=0;entryDy=0;" parent="1" source="1XmJx1WI5i3YDK_gQCyh-14" target="1XmJx1WI5i3YDK_gQCyh-8" edge="1">
          <mxGeometry relative="1" as="geometry">
            <Array as="points">
              <mxPoint x="230" y="405" />
              <mxPoint x="230" y="175" />
            </Array>
          </mxGeometry>
        </mxCell>
        <mxCell id="1XmJx1WI5i3YDK_gQCyh-14" value="Client UI" style="html=1;whiteSpace=wrap;" parent="1" vertex="1">
          <mxGeometry x="100" y="380" width="110" height="50" as="geometry" />
        </mxCell>
        <mxCell id="1XmJx1WI5i3YDK_gQCyh-23" value="SubClassing" style="html=1;whiteSpace=wrap;dashed=1;dashPattern=12 12;" parent="1" vertex="1">
          <mxGeometry x="100" y="270" width="110" height="50" as="geometry" />
        </mxCell>
        <mxCell id="1XmJx1WI5i3YDK_gQCyh-26" value="Main UI Thread" style="swimlane;whiteSpace=wrap" parent="1" vertex="1">
          <mxGeometry x="20" y="50" width="280" height="452" as="geometry" />
        </mxCell>
        <mxCell id="1XmJx1WI5i3YDK_gQCyh-42" value="" style="endArrow=none;dashed=1;html=1;dashPattern=1 3;strokeWidth=2;rounded=0;exitX=1;exitY=0.5;exitDx=0;exitDy=0;entryX=0;entryY=0.5;entryDx=0;entryDy=0;" parent="1" source="1XmJx1WI5i3YDK_gQCyh-23" target="1XmJx1WI5i3YDK_gQCyh-43" edge="1">
          <mxGeometry width="50" height="50" relative="1" as="geometry">
            <mxPoint x="350" y="310" as="sourcePoint" />
            <mxPoint x="380" y="295" as="targetPoint" />
          </mxGeometry>
        </mxCell>
        <mxCell id="1XmJx1WI5i3YDK_gQCyh-46" style="edgeStyle=orthogonalEdgeStyle;rounded=0;orthogonalLoop=1;jettySize=auto;html=1;" parent="1" source="1XmJx1WI5i3YDK_gQCyh-43" target="1XmJx1WI5i3YDK_gQCyh-47" edge="1">
          <mxGeometry relative="1" as="geometry">
            <mxPoint x="650" y="210" as="targetPoint" />
          </mxGeometry>
        </mxCell>
        <mxCell id="1XmJx1WI5i3YDK_gQCyh-43" value="Mouse Hook" style="rounded=0;whiteSpace=wrap;html=1;" parent="1" vertex="1">
          <mxGeometry x="430" y="180" width="120" height="60" as="geometry" />
        </mxCell>
        <mxCell id="1XmJx1WI5i3YDK_gQCyh-48" style="edgeStyle=orthogonalEdgeStyle;rounded=0;orthogonalLoop=1;jettySize=auto;html=1;" parent="1" source="1XmJx1WI5i3YDK_gQCyh-44" target="1XmJx1WI5i3YDK_gQCyh-49" edge="1">
          <mxGeometry relative="1" as="geometry">
            <mxPoint x="620" y="295" as="targetPoint" />
          </mxGeometry>
        </mxCell>
        <mxCell id="1XmJx1WI5i3YDK_gQCyh-44" value="SetFocus, KillFocus" style="rounded=0;whiteSpace=wrap;html=1;" parent="1" vertex="1">
          <mxGeometry x="430" y="265" width="120" height="60" as="geometry" />
        </mxCell>
        <mxCell id="1XmJx1WI5i3YDK_gQCyh-47" value="Send Remote Mouse Event" style="text;html=1;align=center;verticalAlign=middle;whiteSpace=wrap;rounded=0;" parent="1" vertex="1">
          <mxGeometry x="620" y="195" width="170" height="30" as="geometry" />
        </mxCell>
        <mxCell id="1XmJx1WI5i3YDK_gQCyh-49" value="StartHook, Stop Hook" style="text;html=1;align=center;verticalAlign=middle;whiteSpace=wrap;rounded=0;" parent="1" vertex="1">
          <mxGeometry x="619" y="280" width="150" height="30" as="geometry" />
        </mxCell>
        <mxCell id="1XmJx1WI5i3YDK_gQCyh-53" value="" style="endArrow=none;dashed=1;html=1;dashPattern=1 3;strokeWidth=2;rounded=0;exitX=1;exitY=0.5;exitDx=0;exitDy=0;" parent="1" edge="1">
          <mxGeometry width="50" height="50" relative="1" as="geometry">
            <mxPoint x="210" y="295" as="sourcePoint" />
            <mxPoint x="430" y="370" as="targetPoint" />
          </mxGeometry>
        </mxCell>
        <mxCell id="1XmJx1WI5i3YDK_gQCyh-55" style="edgeStyle=orthogonalEdgeStyle;rounded=0;orthogonalLoop=1;jettySize=auto;html=1;" parent="1" source="1XmJx1WI5i3YDK_gQCyh-54" edge="1">
          <mxGeometry relative="1" as="geometry">
            <mxPoint x="620" y="380" as="targetPoint" />
          </mxGeometry>
        </mxCell>
        <mxCell id="1XmJx1WI5i3YDK_gQCyh-54" value="SetCursor" style="rounded=0;whiteSpace=wrap;html=1;" parent="1" vertex="1">
          <mxGeometry x="430" y="350" width="120" height="60" as="geometry" />
        </mxCell>
        <mxCell id="1XmJx1WI5i3YDK_gQCyh-56" value="Rendering Local Mouse" style="text;html=1;align=center;verticalAlign=middle;whiteSpace=wrap;rounded=0;" parent="1" vertex="1">
          <mxGeometry x="612" y="365" width="170" height="30" as="geometry" />
        </mxCell>
        <mxCell id="1XmJx1WI5i3YDK_gQCyh-57" value="" style="endArrow=none;dashed=1;html=1;dashPattern=1 3;strokeWidth=2;rounded=0;exitX=1;exitY=0.5;exitDx=0;exitDy=0;entryX=0;entryY=0.5;entryDx=0;entryDy=0;" parent="1" source="1XmJx1WI5i3YDK_gQCyh-23" target="1XmJx1WI5i3YDK_gQCyh-44" edge="1">
          <mxGeometry width="50" height="50" relative="1" as="geometry">
            <mxPoint x="210" y="290" as="sourcePoint" />
            <mxPoint x="430" y="365" as="targetPoint" />
          </mxGeometry>
        </mxCell>
        <mxCell id="1XmJx1WI5i3YDK_gQCyh-58" value=". . ." style="text;html=1;align=center;verticalAlign=middle;whiteSpace=wrap;rounded=0;fontSize=23;fontStyle=1" parent="1" vertex="1">
          <mxGeometry x="460" y="430" width="60" height="30" as="geometry" />
        </mxCell>
        <mxCell id="cz8kKF3DxG1CXJippCPs-1" value="" style="ellipse;html=1;shape=startState;fillColor=#000000;strokeColor=#ff0000;" vertex="1" parent="1">
          <mxGeometry x="140" y="-450" width="30" height="30" as="geometry" />
        </mxCell>
        <mxCell id="cz8kKF3DxG1CXJippCPs-2" value="" style="edgeStyle=orthogonalEdgeStyle;html=1;verticalAlign=bottom;endArrow=open;endSize=8;strokeColor=#ff0000;rounded=0;" edge="1" parent="1" source="cz8kKF3DxG1CXJippCPs-1">
          <mxGeometry relative="1" as="geometry">
            <mxPoint x="155" y="-380" as="targetPoint" />
          </mxGeometry>
        </mxCell>
        <mxCell id="cz8kKF3DxG1CXJippCPs-3" style="edgeStyle=orthogonalEdgeStyle;rounded=0;orthogonalLoop=1;jettySize=auto;html=1;entryX=0.5;entryY=0;entryDx=0;entryDy=0;" edge="1" parent="1" source="cz8kKF3DxG1CXJippCPs-4" target="cz8kKF3DxG1CXJippCPs-6">
          <mxGeometry relative="1" as="geometry" />
        </mxCell>
        <mxCell id="cz8kKF3DxG1CXJippCPs-4" value="GetMessage" style="html=1;whiteSpace=wrap;" vertex="1" parent="1">
          <mxGeometry x="100" y="-380" width="110" height="50" as="geometry" />
        </mxCell>
        <mxCell id="cz8kKF3DxG1CXJippCPs-31" style="edgeStyle=orthogonalEdgeStyle;rounded=0;orthogonalLoop=1;jettySize=auto;html=1;entryX=1;entryY=0.5;entryDx=0;entryDy=0;" edge="1" parent="1" source="cz8kKF3DxG1CXJippCPs-6" target="cz8kKF3DxG1CXJippCPs-4">
          <mxGeometry relative="1" as="geometry">
            <Array as="points">
              <mxPoint x="230" y="-125" />
              <mxPoint x="230" y="-355" />
            </Array>
          </mxGeometry>
        </mxCell>
        <mxCell id="cz8kKF3DxG1CXJippCPs-6" value="Client UI" style="html=1;whiteSpace=wrap;" vertex="1" parent="1">
          <mxGeometry x="100" y="-150" width="110" height="50" as="geometry" />
        </mxCell>
        <mxCell id="cz8kKF3DxG1CXJippCPs-30" style="edgeStyle=orthogonalEdgeStyle;rounded=0;orthogonalLoop=1;jettySize=auto;html=1;entryX=0;entryY=0.5;entryDx=0;entryDy=0;" edge="1" parent="1" source="cz8kKF3DxG1CXJippCPs-7" target="cz8kKF3DxG1CXJippCPs-26">
          <mxGeometry relative="1" as="geometry" />
        </mxCell>
        <mxCell id="cz8kKF3DxG1CXJippCPs-7" value="CreateWindow" style="html=1;whiteSpace=wrap;dashed=1;dashPattern=12 12;" vertex="1" parent="1">
          <mxGeometry x="100" y="-260" width="110" height="50" as="geometry" />
        </mxCell>
        <mxCell id="cz8kKF3DxG1CXJippCPs-8" value="Main UI Thread" style="swimlane;whiteSpace=wrap" vertex="1" parent="1">
          <mxGeometry x="20" y="-480" width="280" height="452" as="geometry" />
        </mxCell>
        <mxCell id="cz8kKF3DxG1CXJippCPs-23" value="" style="ellipse;html=1;shape=startState;fillColor=#000000;strokeColor=#ff0000;" vertex="1" parent="1">
          <mxGeometry x="500" y="-450" width="30" height="30" as="geometry" />
        </mxCell>
        <mxCell id="cz8kKF3DxG1CXJippCPs-24" value="" style="edgeStyle=orthogonalEdgeStyle;html=1;verticalAlign=bottom;endArrow=open;endSize=8;strokeColor=#ff0000;rounded=0;" edge="1" parent="1" source="cz8kKF3DxG1CXJippCPs-23">
          <mxGeometry relative="1" as="geometry">
            <mxPoint x="515" y="-380" as="targetPoint" />
          </mxGeometry>
        </mxCell>
        <mxCell id="cz8kKF3DxG1CXJippCPs-34" style="edgeStyle=orthogonalEdgeStyle;rounded=0;orthogonalLoop=1;jettySize=auto;html=1;entryX=0.5;entryY=0;entryDx=0;entryDy=0;" edge="1" parent="1" source="cz8kKF3DxG1CXJippCPs-26" target="cz8kKF3DxG1CXJippCPs-33">
          <mxGeometry relative="1" as="geometry" />
        </mxCell>
        <mxCell id="cz8kKF3DxG1CXJippCPs-26" value="CreateWindow" style="html=1;whiteSpace=wrap;" vertex="1" parent="1">
          <mxGeometry x="460" y="-380" width="110" height="50" as="geometry" />
        </mxCell>
        <mxCell id="cz8kKF3DxG1CXJippCPs-29" value="View UI Thread" style="swimlane;whiteSpace=wrap" vertex="1" parent="1">
          <mxGeometry x="380" y="-480" width="280" height="452" as="geometry" />
        </mxCell>
        <mxCell id="cz8kKF3DxG1CXJippCPs-36" style="edgeStyle=orthogonalEdgeStyle;rounded=0;orthogonalLoop=1;jettySize=auto;html=1;entryX=1;entryY=0.5;entryDx=0;entryDy=0;" edge="1" parent="cz8kKF3DxG1CXJippCPs-29" source="cz8kKF3DxG1CXJippCPs-28" target="cz8kKF3DxG1CXJippCPs-33">
          <mxGeometry relative="1" as="geometry">
            <Array as="points">
              <mxPoint x="210" y="325" />
              <mxPoint x="210" y="215" />
            </Array>
          </mxGeometry>
        </mxCell>
        <mxCell id="cz8kKF3DxG1CXJippCPs-28" value="WindowProc" style="html=1;whiteSpace=wrap;dashed=1;dashPattern=12 12;" vertex="1" parent="cz8kKF3DxG1CXJippCPs-29">
          <mxGeometry x="80" y="300" width="110" height="50" as="geometry" />
        </mxCell>
        <mxCell id="cz8kKF3DxG1CXJippCPs-35" style="edgeStyle=orthogonalEdgeStyle;rounded=0;orthogonalLoop=1;jettySize=auto;html=1;entryX=0.5;entryY=0;entryDx=0;entryDy=0;" edge="1" parent="cz8kKF3DxG1CXJippCPs-29" source="cz8kKF3DxG1CXJippCPs-33" target="cz8kKF3DxG1CXJippCPs-28">
          <mxGeometry relative="1" as="geometry" />
        </mxCell>
        <mxCell id="cz8kKF3DxG1CXJippCPs-33" value="GetMessage" style="html=1;whiteSpace=wrap;" vertex="1" parent="cz8kKF3DxG1CXJippCPs-29">
          <mxGeometry x="80" y="190" width="110" height="50" as="geometry" />
        </mxCell>
        <mxCell id="cz8kKF3DxG1CXJippCPs-37" value="" style="endArrow=none;dashed=1;html=1;dashPattern=1 3;strokeWidth=2;rounded=0;exitX=1;exitY=0.5;exitDx=0;exitDy=0;entryX=0;entryY=0.5;entryDx=0;entryDy=0;" edge="1" parent="1" target="cz8kKF3DxG1CXJippCPs-39">
          <mxGeometry width="50" height="50" relative="1" as="geometry">
            <mxPoint x="570" y="-155" as="sourcePoint" />
            <mxPoint x="740" y="-155" as="targetPoint" />
          </mxGeometry>
        </mxCell>
        <mxCell id="cz8kKF3DxG1CXJippCPs-38" style="edgeStyle=orthogonalEdgeStyle;rounded=0;orthogonalLoop=1;jettySize=auto;html=1;" edge="1" parent="1" source="cz8kKF3DxG1CXJippCPs-39" target="cz8kKF3DxG1CXJippCPs-42">
          <mxGeometry relative="1" as="geometry">
            <mxPoint x="1010" y="-240" as="targetPoint" />
          </mxGeometry>
        </mxCell>
        <mxCell id="cz8kKF3DxG1CXJippCPs-39" value="Mouse Hook" style="rounded=0;whiteSpace=wrap;html=1;" vertex="1" parent="1">
          <mxGeometry x="790" y="-270" width="120" height="60" as="geometry" />
        </mxCell>
        <mxCell id="cz8kKF3DxG1CXJippCPs-40" style="edgeStyle=orthogonalEdgeStyle;rounded=0;orthogonalLoop=1;jettySize=auto;html=1;" edge="1" parent="1" source="cz8kKF3DxG1CXJippCPs-41" target="cz8kKF3DxG1CXJippCPs-43">
          <mxGeometry relative="1" as="geometry">
            <mxPoint x="980" y="-155" as="targetPoint" />
          </mxGeometry>
        </mxCell>
        <mxCell id="cz8kKF3DxG1CXJippCPs-41" value="SetFocus, KillFocus" style="rounded=0;whiteSpace=wrap;html=1;" vertex="1" parent="1">
          <mxGeometry x="790" y="-185" width="120" height="60" as="geometry" />
        </mxCell>
        <mxCell id="cz8kKF3DxG1CXJippCPs-42" value="Send Remote Mouse Event" style="text;html=1;align=center;verticalAlign=middle;whiteSpace=wrap;rounded=0;" vertex="1" parent="1">
          <mxGeometry x="980" y="-255" width="170" height="30" as="geometry" />
        </mxCell>
        <mxCell id="cz8kKF3DxG1CXJippCPs-43" value="StartHook, Stop Hook" style="text;html=1;align=center;verticalAlign=middle;whiteSpace=wrap;rounded=0;" vertex="1" parent="1">
          <mxGeometry x="979" y="-170" width="150" height="30" as="geometry" />
        </mxCell>
        <mxCell id="cz8kKF3DxG1CXJippCPs-44" value="" style="endArrow=none;dashed=1;html=1;dashPattern=1 3;strokeWidth=2;rounded=0;exitX=1;exitY=0.5;exitDx=0;exitDy=0;" edge="1" parent="1">
          <mxGeometry width="50" height="50" relative="1" as="geometry">
            <mxPoint x="570" y="-155" as="sourcePoint" />
            <mxPoint x="790" y="-80" as="targetPoint" />
          </mxGeometry>
        </mxCell>
        <mxCell id="cz8kKF3DxG1CXJippCPs-45" style="edgeStyle=orthogonalEdgeStyle;rounded=0;orthogonalLoop=1;jettySize=auto;html=1;" edge="1" parent="1" source="cz8kKF3DxG1CXJippCPs-46">
          <mxGeometry relative="1" as="geometry">
            <mxPoint x="980" y="-70" as="targetPoint" />
          </mxGeometry>
        </mxCell>
        <mxCell id="cz8kKF3DxG1CXJippCPs-46" value="SetCursor" style="rounded=0;whiteSpace=wrap;html=1;" vertex="1" parent="1">
          <mxGeometry x="790" y="-100" width="120" height="60" as="geometry" />
        </mxCell>
        <mxCell id="cz8kKF3DxG1CXJippCPs-47" value="Rendering Local Mouse" style="text;html=1;align=center;verticalAlign=middle;whiteSpace=wrap;rounded=0;" vertex="1" parent="1">
          <mxGeometry x="972" y="-85" width="170" height="30" as="geometry" />
        </mxCell>
        <mxCell id="cz8kKF3DxG1CXJippCPs-48" value="" style="endArrow=none;dashed=1;html=1;dashPattern=1 3;strokeWidth=2;rounded=0;exitX=1;exitY=0.5;exitDx=0;exitDy=0;entryX=0;entryY=0.5;entryDx=0;entryDy=0;" edge="1" parent="1" target="cz8kKF3DxG1CXJippCPs-41">
          <mxGeometry width="50" height="50" relative="1" as="geometry">
            <mxPoint x="570" y="-155" as="sourcePoint" />
            <mxPoint x="790" y="-85" as="targetPoint" />
          </mxGeometry>
        </mxCell>
        <mxCell id="cz8kKF3DxG1CXJippCPs-49" value=". . ." style="text;html=1;align=center;verticalAlign=middle;whiteSpace=wrap;rounded=0;fontSize=23;fontStyle=1" vertex="1" parent="1">
          <mxGeometry x="820" y="-20" width="60" height="30" as="geometry" />
        </mxCell>
        <mxCell id="cz8kKF3DxG1CXJippCPs-50" value="Prev" style="text;html=1;align=center;verticalAlign=middle;whiteSpace=wrap;rounded=0;fontStyle=1;fontSize=14;" vertex="1" parent="1">
          <mxGeometry x="20" y="-510" width="60" height="30" as="geometry" />
        </mxCell>
        <mxCell id="cz8kKF3DxG1CXJippCPs-51" value="Current" style="text;html=1;align=center;verticalAlign=middle;whiteSpace=wrap;rounded=0;fontStyle=1;fontSize=14;" vertex="1" parent="1">
          <mxGeometry x="20" y="20" width="60" height="30" as="geometry" />
        </mxCell>
      </root>
    </mxGraphModel>
  </diagram>
</mxfile>
